<mxfile host="app.diagrams.net" modified="2022-02-21T06:41:35.312Z" agent="5.0 (Windows)" etag="UvjjA8NP5BYUapdGKmFS" version="16.6.1" type="github">
  <diagram id="TQviJIrs2LyW931e8FbJ" name="Page-1">
    <mxGraphModel dx="1422" dy="709" grid="1" gridSize="10" guides="1" tooltips="1" connect="1" arrows="1" fold="1" page="1" pageScale="1" pageWidth="1169" pageHeight="827" math="0" shadow="0">
      <root>
        <mxCell id="0" />
        <mxCell id="1" parent="0" />
        <mxCell id="q0c5YIx2BFk4D5gPvDd2-1" value="" style="rounded=1;whiteSpace=wrap;html=1;fillColor=#dae8fc;strokeColor=#6c8ebf;" vertex="1" parent="1">
          <mxGeometry x="410" y="160" width="310" height="270" as="geometry" />
        </mxCell>
        <mxCell id="q0c5YIx2BFk4D5gPvDd2-2" value="Parameter VALUE" style="text;html=1;strokeColor=none;fillColor=none;align=center;verticalAlign=middle;whiteSpace=wrap;rounded=0;fontSize=33;" vertex="1" parent="1">
          <mxGeometry x="380" y="40" width="370" height="40" as="geometry" />
        </mxCell>
        <mxCell id="q0c5YIx2BFk4D5gPvDd2-3" value="getValue()" style="text;html=1;strokeColor=none;fillColor=none;align=left;verticalAlign=middle;whiteSpace=wrap;rounded=0;fontSize=18;" vertex="1" parent="1">
          <mxGeometry x="420" y="310" width="130" height="40" as="geometry" />
        </mxCell>
        <mxCell id="q0c5YIx2BFk4D5gPvDd2-5" value="setFromFileParams()" style="text;html=1;strokeColor=none;fillColor=none;align=left;verticalAlign=middle;whiteSpace=wrap;rounded=0;fontSize=18;" vertex="1" parent="1">
          <mxGeometry x="420" y="200" width="180" height="40" as="geometry" />
        </mxCell>
        <mxCell id="q0c5YIx2BFk4D5gPvDd2-6" value="setFromCanParams()" style="text;html=1;strokeColor=none;fillColor=none;align=left;verticalAlign=middle;whiteSpace=wrap;rounded=0;fontSize=18;" vertex="1" parent="1">
          <mxGeometry x="420" y="240" width="180" height="40" as="geometry" />
        </mxCell>
        <mxCell id="q0c5YIx2BFk4D5gPvDd2-7" value="getCanValue()" style="text;html=1;strokeColor=none;fillColor=none;align=left;verticalAlign=middle;whiteSpace=wrap;rounded=0;fontSize=18;" vertex="1" parent="1">
          <mxGeometry x="420" y="350" width="130" height="40" as="geometry" />
        </mxCell>
        <mxCell id="q0c5YIx2BFk4D5gPvDd2-8" value="getValue и getCanValue должны быть сравниваемые, например:&lt;br&gt;&lt;font color=&quot;#0000FF&quot;&gt;voltageBox.getValue()&amp;nbsp; !== voltageBox.getCanValue()&lt;/font&gt;" style="text;html=1;strokeColor=none;fillColor=none;align=center;verticalAlign=middle;whiteSpace=wrap;rounded=0;fontSize=18;" vertex="1" parent="1">
          <mxGeometry x="290" y="470" width="550" height="50" as="geometry" />
        </mxCell>
        <mxCell id="q0c5YIx2BFk4D5gPvDd2-10" value="getValue универсальный (и для сохранения в файл и для высылки в CAN)&lt;br&gt;getValue не должен зависеть от внешних условий (например от вкладки)" style="text;html=1;strokeColor=none;fillColor=none;align=center;verticalAlign=middle;whiteSpace=wrap;rounded=0;fontSize=18;" vertex="1" parent="1">
          <mxGeometry x="300" y="560" width="600" height="50" as="geometry" />
        </mxCell>
      </root>
    </mxGraphModel>
  </diagram>
</mxfile>
